<svg xmlns="http://www.w3.org/2000/svg" xmlns:xlink="http://www.w3.org/1999/xlink" version="1.1" width="1000" height="1000" viewBox="0 0 1000 1000" xml:space="preserve">
<desc>Created with Fabric.js 3.5.0</desc>
<defs>
</defs>
<rect x="0" y="0" width="100%" height="100%" fill="rgba(255,255,255,0)"/>
<g transform="matrix(3.5511 0 0 3.5511 499.9953 499.9953)" id="909182">
<g style="" vector-effect="non-scaling-stroke">
		<g transform="matrix(1 0 0 1 0 0)">
<rect style="stroke: none; stroke-width: 1; stroke-dasharray: none; stroke-linecap: butt; stroke-dashoffset: 0; stroke-linejoin: miter; stroke-miterlimit: 4; is-custom-font: none; font-file-url: none; fill: none; fill-rule: nonzero; opacity: 1;" x="-128" y="-128" rx="0" ry="0" width="256" height="256"/>
</g>
		<g transform="matrix(1 0 0 1 0 -4.0133)">
<path style="stroke: none; stroke-width: 1; stroke-dasharray: none; stroke-linecap: butt; stroke-dashoffset: 0; stroke-linejoin: miter; stroke-miterlimit: 4; is-custom-font: none; font-file-url: none; fill: rgb(255,255,255); fill-rule: nonzero; opacity: 1;" transform=" translate(-128, -123.9867)" d="M 236.7 188 L 148.8 36 a 24 24 0 0 0 -41.6 0 h 0 L 19.3 188 A 23.9 23.9 0 0 0 40 224 H 216 a 23.9 23.9 0 0 0 20.7 -36 Z" stroke-linecap="round"/>
</g>
</g>
</g>
</svg>